<?xml version="1.0" encoding="UTF-8"?>
<svg width="26px" height="25px" viewBox="0 0 26 25" version="1.1" xmlns="http://www.w3.org/2000/svg" xmlns:xlink="http://www.w3.org/1999/xlink">
    <!-- Generator: Sketch 55.1 (78136) - https://sketchapp.com -->
    <title>github</title>
    <desc>Created with Sketch.</desc>
    <g id="Icons" stroke="none" stroke-width="1" fill="none" fill-rule="evenodd">
        <g id="Podcast-Copy" transform="translate(-623.000000, -688.000000)" fill="#000000" fill-rule="nonzero">
            <g id="Button" transform="translate(615.000000, 678.000000)">
                <g id="github" transform="translate(8.500000, 10.000000)">
                    <path d="M8.295,19.8798141 C8.295,19.9798141 8.18,20.0598141 8.035,20.0598141 C7.87,20.0748141 7.755,19.9948141 7.755,19.8798141 C7.755,19.7798141 7.87,19.6998141 8.015,19.6998141 C8.165,19.6848141 8.295,19.7648141 8.295,19.8798141 Z M6.74,19.6548141 C6.705,19.7548141 6.805,19.8698141 6.955,19.8998141 C7.085,19.9498141 7.235,19.8998141 7.265,19.7998141 C7.295,19.6998141 7.2,19.5848141 7.05,19.5398141 C6.92,19.5048141 6.775,19.5548141 6.74,19.6548141 Z M8.95,19.5698141 C8.805,19.6048141 8.705,19.6998141 8.72,19.8148141 C8.735,19.9148141 8.865,19.9798141 9.015,19.9448141 C9.16,19.9098141 9.26,19.8148141 9.245,19.7148141 C9.23,19.6198141 9.095,19.5548141 8.95,19.5698141 Z M12.24,0.409814108 C5.305,0.409814108 9.05941988e-14,5.67481411 9.05941988e-14,12.6098141 C9.05941988e-14,18.1548141 3.49,22.8998141 8.475,24.5698141 C9.115,24.6848141 9.34,24.2898141 9.34,23.9648141 C9.34,23.6548141 9.325,21.9448141 9.325,20.8948141 C9.325,20.8948141 5.825,21.6448141 5.09,19.4048141 C5.09,19.4048141 4.52,17.9498141 3.7,17.5748141 C3.7,17.5748141 2.555,16.7898141 3.78,16.8048141 C3.78,16.8048141 5.025,16.9048141 5.71,18.0948141 C6.805,20.0248141 8.64,19.4698141 9.355,19.1398141 C9.47,18.3398141 9.795,17.7848141 10.155,17.4548141 C7.36,17.1448141 4.54,16.7398141 4.54,11.9298141 C4.54,10.5548141 4.92,9.86481411 5.72,8.98481411 C5.59,8.65981411 5.165,7.31981411 5.85,5.58981411 C6.895,5.26481411 9.3,6.93981411 9.3,6.93981411 C10.3,6.65981411 11.375,6.51481411 12.44,6.51481411 C13.505,6.51481411 14.58,6.65981411 15.58,6.93981411 C15.58,6.93981411 17.985,5.25981411 19.03,5.58981411 C19.715,7.32481411 19.29,8.65981411 19.16,8.98481411 C19.96,9.86981411 20.45,10.5598141 20.45,11.9298141 C20.45,16.7548141 17.505,17.1398141 14.71,17.4548141 C15.17,17.8498141 15.56,18.5998141 15.56,19.7748141 C15.56,21.4598141 15.545,23.5448141 15.545,23.9548141 C15.545,24.2798141 15.775,24.6748141 16.41,24.5598141 C21.41,22.8998141 24.8,18.1548141 24.8,12.6098141 C24.8,5.67481411 19.175,0.409814108 12.24,0.409814108 Z M4.86,17.6548141 C4.795,17.7048141 4.81,17.8198141 4.895,17.9148141 C4.975,17.9948141 5.09,18.0298141 5.155,17.9648141 C5.22,17.9148141 5.205,17.7998141 5.12,17.7048141 C5.04,17.6248141 4.925,17.5898141 4.86,17.6548141 Z M4.32,17.2498141 C4.285,17.3148141 4.335,17.3948141 4.435,17.4448141 C4.515,17.4948141 4.615,17.4798141 4.65,17.4098141 C4.685,17.3448141 4.635,17.2648141 4.535,17.2148141 C4.435,17.1848141 4.355,17.1998141 4.32,17.2498141 Z M5.94,19.0298141 C5.86,19.0948141 5.89,19.2448141 6.005,19.3398141 C6.12,19.4548141 6.265,19.4698141 6.33,19.3898141 C6.395,19.3248141 6.365,19.1748141 6.265,19.0798141 C6.155,18.9648141 6.005,18.9498141 5.94,19.0298141 Z M5.37,18.2948141 C5.29,18.3448141 5.29,18.4748141 5.37,18.5898141 C5.45,18.7048141 5.585,18.7548141 5.65,18.7048141 C5.73,18.6398141 5.73,18.5098141 5.65,18.3948141 C5.58,18.2798141 5.45,18.2298141 5.37,18.2948141 Z" id="Shape"></path>
                </g>
            </g>
        </g>
    </g>
</svg>